<?xml version="1.0" standalone="no"?><!DOCTYPE svg PUBLIC "-//W3C//DTD SVG 1.1//EN" "http://www.w3.org/Graphics/SVG/1.1/DTD/svg11.dtd"><svg height="500" node-id="1" sillyvg="true" template-height="500" template-width="500" version="1.1" viewBox="0 0 500 500" width="500" xmlns="http://www.w3.org/2000/svg" xmlns:xlink="http://www.w3.org/1999/xlink"><defs node-id="45"></defs><g node-id="148"><path d="M 440.64 268.00 C 440.64 268.00 440.64 268.05 440.63 268.14 L 440.63 268.14 C 440.62 268.20 440.61 268.27 440.60 268.36 C 440.51 269.09 440.25 270.87 439.70 273.49 C 439.70 273.49 439.70 273.49 439.70 273.50 C 439.55 274.23 439.37 275.01 439.17 275.87 C 438.79 277.45 438.33 279.24 437.77 281.20 C 437.77 281.22 437.76 281.24 437.76 281.26 C 434.67 291.93 428.43 307.82 416.10 324.21 C 414.96 325.72 413.77 327.24 412.52 328.76 C 411.78 329.66 411.02 330.56 410.25 331.47 C 410.27 331.54 410.29 331.61 410.32 331.68 C 410.36 331.81 410.41 331.94 410.47 332.08 C 409.00 333.97 407.49 335.80 405.95 337.53 C 402.11 341.84 397.73 346.54 392.72 351.33 C 392.11 351.91 391.50 352.50 390.87 353.08 C 390.44 353.48 390.02 353.88 389.58 354.28 C 389.12 354.69 388.67 355.11 388.20 355.52 C 387.37 356.27 386.52 357.01 385.67 357.74 C 385.23 358.12 384.78 358.50 384.33 358.88 C 376.58 365.44 367.54 371.91 356.93 377.59 C 356.52 377.80 356.11 378.03 355.70 378.24 C 346.73 382.99 336.98 387.05 326.41 390.17 C 321.31 391.90 318.27 392.67 318.27 392.67 C 318.27 392.67 314.30 393.61 307.33 394.57 C 307.31 394.58 307.29 394.58 307.27 394.58 C 294.18 396.80 280.02 397.62 264.71 396.68 C 257.17 396.22 250.00 395.46 243.17 394.43 C 243.15 394.43 243.13 394.43 243.11 394.42 C 229.70 392.55 215.31 389.31 200.65 384.05 C 180.41 376.78 164.51 366.18 152.19 354.57 C 152.24 354.38 152.04 353.99 151.64 353.44 C 151.53 353.29 151.40 353.12 151.27 352.94 C 148.67 349.65 141.08 342.13 134.06 333.55 C 133.59 332.99 133.13 332.41 132.67 331.84 C 132.37 331.45 132.06 331.06 131.75 330.67 C 127.03 324.60 122.88 318.19 121.14 312.48 C 121.11 312.38 121.08 312.29 121.05 312.19 C 120.96 311.88 120.87 311.57 120.78 311.26 C 120.21 309.26 119.71 307.40 119.27 305.68 C 116.01 292.87 115.97 287.31 113.75 284.77 C 113.23 284.18 112.63 283.48 112.06 282.71 C 112.04 282.69 112.02 282.66 112.00 282.63 C 111.74 282.30 111.49 281.95 111.25 281.59 C 111.13 281.41 111.02 281.24 110.92 281.07 C 110.36 280.15 109.89 279.20 109.63 278.25 C 109.12 276.39 109.44 274.57 111.48 273.19 C 111.95 272.87 112.63 272.18 113.47 271.17 C 113.97 270.57 114.53 269.87 115.14 269.07 C 115.14 269.07 115.15 269.07 115.15 269.06 C 119.54 263.27 126.46 252.49 132.32 241.93 C 133.97 238.95 135.54 235.99 136.94 233.16 C 136.99 233.06 137.03 232.96 137.09 232.86 C 137.72 231.58 138.31 230.34 138.87 229.13 C 138.98 228.88 139.10 228.64 139.21 228.39 C 141.35 223.62 142.79 219.51 143.07 216.74 C 143.22 215.28 143.33 214.10 143.41 213.17 C 143.49 212.30 143.53 211.64 143.56 211.16 L 143.56 211.15 C 143.57 210.97 143.57 210.81 143.58 210.68 L 143.58 210.66 C 143.59 210.17 143.57 209.98 143.52 210.00 C 143.49 210.00 143.46 210.08 143.42 210.20 C 143.24 210.75 142.96 212.26 142.86 212.87 C 142.83 213.03 142.81 213.13 142.81 213.13 C 142.81 213.13 134.11 209.39 124.00 199.49 C 116.44 192.09 108.10 181.25 102.02 165.97 C 101.93 165.76 101.85 165.55 101.77 165.34 C 101.72 165.21 101.67 165.08 101.62 164.95 C 101.46 164.54 101.30 164.13 101.15 163.72 C 101.17 163.70 101.19 163.69 101.21 163.67 C 102.26 162.75 103.61 161.75 105.27 160.72 C 114.44 155.08 133.02 148.91 161.93 153.69 C 165.88 154.34 170.04 155.20 174.38 156.30 C 174.74 156.39 175.11 156.49 175.47 156.58 C 175.91 156.69 176.34 156.81 176.78 156.93 C 180.34 157.88 184.04 158.99 187.86 160.27 C 188.39 160.45 188.93 160.63 189.47 160.82 C 191.63 161.56 193.84 162.36 196.09 163.22 C 196.46 163.22 196.92 163.13 197.47 162.95 C 199.02 162.47 201.27 161.35 204.19 159.88 L 204.19 159.88 C 210.30 156.81 219.32 152.24 230.81 148.83 C 241.97 145.51 255.46 143.29 270.90 144.60 C 270.98 144.50 271.09 144.35 271.22 144.17 C 272.08 142.95 274.05 140.14 276.77 139.17 C 277.43 138.93 278.15 138.80 278.90 138.84 C 281.71 138.96 282.59 141.96 283.39 144.07 C 283.39 144.07 283.39 144.08 283.39 144.08 C 283.68 144.85 283.96 145.49 284.33 145.83 C 284.48 145.98 284.65 146.07 284.84 146.09 C 285.38 146.14 285.55 145.53 285.61 144.65 C 285.64 144.23 285.65 143.74 285.66 143.24 C 285.73 141.17 285.94 138.74 288.37 138.85 C 291.03 138.96 292.76 142.47 294.08 145.19 C 294.54 146.12 294.94 146.96 295.32 147.53 C 295.61 147.98 295.89 148.27 296.17 148.33 C 296.38 148.38 296.63 148.37 296.90 148.31 C 296.90 148.31 296.90 148.31 296.90 148.31 C 297.29 148.23 297.74 148.05 298.19 147.81 C 299.87 146.92 301.73 145.19 302.12 144.43 C 302.20 144.27 302.32 144.25 302.48 144.34 C 302.48 144.34 302.49 144.34 302.49 144.34 C 303.14 144.73 304.38 146.94 305.60 148.45 C 305.60 148.46 305.61 148.46 305.61 148.46 C 306.13 149.11 306.65 149.62 307.13 149.81 C 307.17 149.83 307.23 149.84 307.30 149.86 C 307.75 149.98 308.74 150.14 310.12 150.33 L 310.13 150.33 C 310.67 150.41 311.27 150.49 311.92 150.58 L 311.94 150.58 C 313.44 150.78 315.21 151.01 317.12 151.28 C 319.22 151.57 321.51 151.91 323.81 152.29 C 331.37 153.54 339.18 155.27 341.71 157.62 C 341.79 157.44 341.90 157.19 342.04 156.87 C 342.57 155.69 343.55 153.62 344.85 150.99 C 348.41 143.80 354.34 132.43 359.83 123.59 C 359.85 123.56 359.87 123.53 359.89 123.50 C 360.25 122.93 360.60 122.37 360.95 121.82 C 364.20 116.74 367.23 112.74 369.42 111.27 C 369.61 111.15 369.79 111.04 369.96 110.95 C 369.98 110.94 369.99 110.93 370.01 110.93 C 370.52 110.69 371.08 110.60 371.68 110.66 C 371.75 110.66 371.81 110.67 371.87 110.69 C 372.07 110.72 372.27 110.77 372.47 110.83 C 372.47 110.83 372.47 110.83 372.47 110.83 C 375.36 111.69 379.03 115.47 382.77 120.83 C 383.99 122.57 385.21 124.48 386.42 126.50 C 387.78 128.78 389.12 131.21 390.40 133.74 C 390.40 133.76 390.41 133.78 390.42 133.80 C 390.81 134.56 391.19 135.33 391.57 136.10 C 391.58 136.11 391.59 136.13 391.59 136.15 C 395.30 143.82 398.43 152.11 400.07 159.29 C 400.81 162.52 401.39 165.71 401.85 168.82 C 402.07 170.27 402.25 171.70 402.41 173.11 C 402.41 173.17 402.42 173.22 402.43 173.28 C 402.49 173.76 402.54 174.23 402.59 174.71 C 403.12 179.85 403.32 184.62 403.32 188.74 L 403.32 188.74 C 403.32 193.61 403.04 197.56 402.70 200.17 C 402.64 200.63 402.58 201.03 402.51 201.40 C 402.51 201.40 402.51 201.40 402.51 201.40 C 402.38 202.20 402.24 202.80 402.11 203.17 C 402.04 203.36 402.03 203.62 402.07 203.95 C 402.11 204.38 402.24 204.92 402.43 205.56 C 402.43 205.56 402.43 205.56 402.43 205.56 C 403.67 209.76 407.72 218.45 411.20 229.27 C 411.20 229.28 411.20 229.28 411.20 229.29 C 411.76 231.04 412.31 232.84 412.83 234.69 C 414.60 241.00 416.02 247.84 416.55 254.82 C 416.57 255.08 416.59 255.33 416.61 255.59 C 416.65 255.64 416.70 255.69 416.74 255.73 C 420.50 259.75 433.57 265.24 438.59 267.25 C 438.79 267.34 438.99 267.41 439.16 267.48 C 440.12 267.80 440.64 268.00 440.64 268.00 Z" fill="#f9f4e1" fill-rule="nonzero" group-id="1" node-id="51" stroke="none" target-height="287.02" target-width="339.49002" target-x="101.15" target-y="110.6"></path></g><g node-id="149"><g node-id="150"><path d="M 440.84 268.48 C 440.83 268.58 440.82 268.69 440.80 268.81 L 440.80 268.82 C 440.65 269.86 440.29 271.44 439.71 273.48 C 439.71 273.48 439.71 273.48 439.71 273.49 C 436.49 284.82 426.53 310.05 409.48 332.16 C 386.21 364.46 350.35 381.30 331.26 388.41 C 329.49 389.07 327.87 389.65 326.41 390.15 C 321.31 391.88 318.27 392.65 318.27 392.65 C 318.27 392.65 314.30 393.59 307.33 394.55 C 307.31 394.56 307.29 394.56 307.27 394.56 C 294.25 396.37 270.79 398.27 243.17 394.42 C 243.15 394.42 243.13 394.42 243.11 394.41 C 229.70 392.54 215.31 389.30 200.65 384.04 C 180.41 376.77 164.51 366.17 152.19 354.56 C 147.24 349.89 142.88 345.07 139.04 340.23 C 139.03 340.22 139.01 340.20 139.00 340.19 C 138.21 339.18 137.43 338.18 136.68 337.18 C 136.67 337.16 136.66 337.15 136.64 337.13 C 135.75 335.93 134.89 334.74 134.06 333.55 C 127.10 323.57 122.32 313.83 119.28 305.67 C 117.69 301.38 116.57 297.52 115.87 294.30 C 115.87 294.28 115.86 294.25 115.86 294.23 C 115.73 293.60 115.61 293.00 115.50 292.42 C 115.41 291.91 115.33 291.42 115.26 290.96 C 115.05 289.50 114.29 287.50 113.39 285.49 C 113.06 284.74 112.70 284.00 112.35 283.28 C 112.30 283.18 112.25 283.07 112.19 282.97 C 112.13 282.85 112.07 282.74 112.01 282.62 C 111.03 280.70 110.10 279.05 109.64 278.24 C 109.46 277.94 109.35 277.75 109.33 277.71 C 109.33 277.71 109.33 277.71 109.33 277.71 C 109.20 277.30 109.16 276.87 109.22 276.45 C 109.37 275.36 110.09 274.22 111.11 273.05 C 112.22 271.77 113.69 270.44 115.15 269.06 C 115.15 269.06 115.16 269.06 115.16 269.05 C 116.29 267.99 117.42 266.90 118.38 265.79 C 118.74 265.37 119.08 264.95 119.39 264.53 C 122.19 260.83 125.28 255.65 128.27 250.00 C 128.27 250.00 128.28 249.99 128.28 249.98 C 129.67 247.36 131.03 244.64 132.33 241.93 C 138.65 228.78 143.59 215.62 142.88 213.85 C 134.46 208.96 127.51 203.31 121.87 197.60 C 117.59 193.27 114.07 188.90 111.24 184.79 C 111.21 184.75 111.18 184.71 111.15 184.67 C 105.80 176.88 102.93 170.04 102.08 166.19 C 102.06 166.11 102.05 166.03 102.03 165.96 C 101.90 165.33 101.83 164.79 101.81 164.35 C 101.78 163.60 101.91 163.13 102.17 162.96 C 118.91 152.49 138.87 151.13 156.32 152.96 C 156.34 152.96 156.36 152.96 156.38 152.96 C 158.26 153.16 160.12 153.40 161.94 153.67 C 179.10 156.18 192.99 161.35 197.49 162.91 C 197.92 163.06 198.25 163.17 198.51 163.25 C 198.66 163.29 198.77 163.33 198.86 163.34 C 199.61 162.81 200.37 162.29 201.13 161.79 C 202.15 161.11 203.18 160.47 204.22 159.84 L 204.22 159.84 C 213.07 154.50 222.25 151.02 230.84 148.79 C 236.36 147.35 241.64 146.43 246.43 145.85 C 259.53 144.26 268.97 145.26 269.78 145.39 C 271.46 145.67 275.37 139.94 278.17 139.24 C 279.87 138.81 281.67 141.28 282.94 143.27 C 283.11 143.53 283.27 143.78 283.41 144.02 C 283.41 144.02 283.41 144.03 283.41 144.03 C 283.99 144.97 284.41 145.66 284.59 145.66 C 284.83 145.66 285.18 144.51 285.69 143.18 C 285.80 142.90 285.92 142.60 286.05 142.31 C 286.68 140.81 287.53 139.37 288.65 139.23 C 288.76 139.22 288.87 139.23 288.98 139.25 C 288.98 139.25 288.98 139.25 288.99 139.25 C 289.06 139.27 289.12 139.29 289.19 139.31 C 289.21 139.31 289.23 139.32 289.25 139.33 C 290.41 139.81 291.81 141.81 293.16 143.76 C 293.48 144.23 293.80 144.68 294.11 145.12 C 295.16 146.60 296.14 147.79 296.90 147.89 C 297.30 147.94 297.75 147.88 298.23 147.73 C 299.20 147.44 300.26 146.84 301.11 146.28 C 302.07 145.66 302.77 145.09 302.77 145.09 C 302.77 145.09 303.17 145.64 303.80 146.38 C 304.30 146.98 304.95 147.71 305.65 148.38 C 305.65 148.39 305.66 148.39 305.66 148.39 C 306.21 148.92 306.78 149.42 307.34 149.79 C 307.52 149.91 307.71 150.02 307.88 150.11 C 308.01 150.18 308.14 150.24 308.26 150.29 C 309.52 150.32 310.76 150.39 311.97 150.50 L 311.99 150.50 C 313.78 150.66 315.51 150.90 317.17 151.20 C 329.41 153.40 338.01 158.69 340.97 158.13 C 341.63 158.01 342.01 157.59 342.09 156.78 C 342.09 156.73 342.09 156.68 342.10 156.62 C 342.21 154.01 347.30 144.10 353.23 134.14 C 355.40 130.49 357.69 126.83 359.88 123.51 C 359.90 123.48 359.92 123.45 359.94 123.42 C 360.83 122.09 361.70 120.80 362.54 119.61 C 362.57 119.57 362.60 119.52 362.63 119.48 C 365.24 115.79 367.56 112.90 369.19 111.50 C 369.51 111.23 369.80 111.02 370.06 110.86 C 370.32 110.71 370.54 110.62 370.74 110.59 C 371.06 110.54 371.39 110.55 371.72 110.59 C 371.79 110.59 371.85 110.60 371.91 110.62 C 372.14 110.66 372.36 110.72 372.59 110.80 C 372.59 110.80 372.59 110.80 372.60 110.80 C 374.31 111.40 376.12 113.04 378.00 115.21 C 378.45 115.73 378.90 116.28 379.36 116.85 C 381.61 119.68 383.95 123.09 386.34 126.26 C 386.38 126.32 386.42 126.37 386.46 126.43 C 386.74 126.80 387.02 127.17 387.31 127.54 C 387.42 127.68 387.53 127.83 387.65 127.97 C 389.09 130.69 390.41 133.38 391.61 136.03 C 391.62 136.04 391.63 136.06 391.63 136.08 C 396.50 146.78 399.51 156.87 401.27 165.87 C 401.75 168.34 402.14 170.73 402.45 173.03 C 402.45 173.09 402.46 173.14 402.47 173.20 C 402.55 173.75 402.61 174.29 402.67 174.83 C 403.27 179.97 403.45 184.62 403.35 188.66 L 403.35 188.66 C 403.20 195.13 402.34 200.03 401.36 202.88 C 401.44 202.98 401.52 203.08 401.59 203.18 C 401.60 203.19 401.61 203.20 401.62 203.22 C 401.79 203.43 401.95 203.65 402.10 203.88 C 404.60 207.44 406.73 212.81 408.52 218.76 C 409.53 222.13 410.43 225.68 411.23 229.20 C 411.23 229.21 411.23 229.21 411.23 229.22 C 414.08 241.77 415.64 254.02 416.17 256.30 C 416.48 257.64 418.60 259.11 421.51 260.57 C 426.43 263.04 433.60 265.50 438.06 267.27 C 438.19 267.32 438.32 267.37 438.44 267.42 C 438.58 267.48 438.72 267.53 438.84 267.59 C 439.50 267.86 440.09 268.12 440.57 268.34 C 440.64 268.38 440.71 268.41 440.77 268.44 C 440.82 268.47 440.83 268.48 440.84 268.48 Z" fill="#eaac81" fill-rule="nonzero" group-id="2,3" node-id="58" stroke="none" target-height="287.72998" target-width="339.06" target-x="101.78" target-y="110.54"></path></g><g node-id="151"><path d="M 375.19 123.88 C 375.19 123.88 378.69 159.12 374.22 168.65 C 375.97 170.21 379.28 170.99 379.87 175.46 C 380.45 179.94 380.45 184.03 380.45 184.03 C 380.45 184.03 400.31 199.60 400.89 203.11 C 401.47 206.61 407.31 190.85 403.81 179.17 C 400.31 167.49 394.08 121.94 371.69 111.43 C 373.04 119.01 375.19 123.88 375.19 123.88 Z" fill="#f7f4e3" fill-rule="nonzero" group-id="2,4" node-id="63" stroke="none" target-height="95.18" target-width="35.619995" target-x="371.69" target-y="111.43"></path></g><g node-id="152"><path d="M 101.56 164.33 C 101.56 164.33 130.19 164.95 158.98 187.39 C 160.22 189.56 156.04 194.82 149.39 196.21 C 142.74 197.60 146.76 199.92 147.07 201.78 C 147.38 203.64 143.20 206.11 143.20 206.11 L 143.82 213.38 C 143.81 213.39 104.19 191.88 101.56 164.33 Z" fill="#f7f4e3" fill-rule="nonzero" group-id="2,5" node-id="68" stroke="none" target-height="49.059998" target-width="58.660004" target-x="101.56" target-y="164.33"></path></g><g node-id="153"><path d="M 440.80 268.47 C 440.80 268.57 440.80 268.69 440.79 268.82 L 440.79 268.83 C 440.71 270.18 440.15 272.63 439.17 275.87 C 436.37 285.06 430.12 300.63 421.49 315.50 C 419.78 318.45 417.97 321.37 416.08 324.21 C 414.28 326.92 412.39 329.56 410.44 332.07 C 408.97 333.96 407.46 335.79 405.92 337.52 C 402.08 341.83 397.70 346.53 392.69 351.32 C 392.08 351.90 391.47 352.49 390.84 353.07 C 390.41 353.47 389.99 353.87 389.55 354.27 C 389.09 354.68 388.64 355.10 388.17 355.51 C 387.34 356.26 386.49 357.00 385.64 357.73 C 385.20 358.11 384.75 358.49 384.30 358.87 C 376.55 365.43 367.51 371.90 356.90 377.58 C 356.49 377.79 356.08 378.02 355.67 378.23 C 348.30 382.09 340.19 385.56 331.24 388.42 C 312.95 394.26 291.17 397.55 265.10 396.33 C 217.64 394.25 178.62 378.28 151.25 352.95 C 145.94 348.04 141.07 342.77 136.66 337.19 C 136.65 337.17 136.64 337.16 136.62 337.14 C 135.25 335.41 133.93 333.64 132.65 331.84 C 129.95 328.05 127.45 324.13 125.16 320.08 C 123.91 317.86 122.72 315.61 121.59 313.32 C 121.40 312.95 121.22 312.57 121.04 312.19 C 120.12 310.23 119.36 308.23 118.72 306.26 C 117.30 301.93 116.46 297.73 115.84 294.32 C 115.84 294.30 115.83 294.27 115.83 294.25 C 115.70 293.51 115.57 292.80 115.46 292.14 C 115.14 290.31 114.87 288.82 114.58 287.83 C 114.58 287.81 114.57 287.78 114.56 287.76 C 114.48 287.49 114.39 287.26 114.30 287.07 C 114.30 287.06 114.29 287.05 114.29 287.04 C 114.24 286.94 114.19 286.85 114.13 286.77 C 113.89 286.42 113.63 285.99 113.37 285.50 C 113.00 284.80 112.62 284.00 112.26 283.20 C 112.26 283.19 112.25 283.18 112.25 283.18 C 112.22 283.12 112.19 283.05 112.16 282.99 C 112.12 282.90 112.08 282.81 112.04 282.72 C 111.26 280.92 110.67 279.32 110.67 279.32 C 110.67 279.32 114.81 280.71 119.83 282.03 C 123.83 283.08 128.38 284.08 131.83 284.30 C 133.79 284.42 135.40 284.29 136.35 283.77 C 136.84 283.50 137.29 283.15 137.74 282.73 C 138.85 281.69 139.88 280.23 141.07 278.68 C 141.07 278.68 141.08 278.67 141.09 278.66 C 142.89 276.31 145.08 273.72 148.48 272.00 C 148.49 272.00 148.51 271.99 148.52 271.98 C 150.17 271.14 152.11 270.51 154.42 270.20 L 154.44 270.20 C 155.21 270.10 156.02 270.03 156.87 270.00 C 157.02 269.96 157.18 269.88 157.35 269.74 C 158.24 269.08 159.44 267.29 161.16 265.32 C 161.16 265.32 161.17 265.31 161.17 265.30 C 162.67 263.58 164.55 261.73 166.96 260.36 C 166.97 260.36 166.98 260.36 166.98 260.35 C 169.43 258.95 172.43 258.08 176.09 258.38 C 176.22 258.39 176.36 258.40 176.49 258.42 C 180.33 258.82 186.60 260.52 193.53 262.71 C 200.62 264.95 208.40 267.70 214.98 270.09 C 215.41 270.25 215.84 270.40 216.27 270.56 C 223.80 273.30 229.50 275.45 230.33 275.61 C 232.63 276.04 239.80 272.31 244.25 270.88 C 246.59 270.13 254.11 267.65 263.49 267.29 C 269.55 267.05 276.38 267.70 283.09 270.24 C 283.09 270.24 283.10 270.24 283.10 270.25 C 285.73 271.24 288.34 272.53 290.88 274.18 C 291.63 274.48 294.32 273.98 297.67 272.83 C 297.67 272.83 297.67 272.83 297.68 272.83 C 303.92 270.70 312.47 266.35 315.28 260.84 C 315.33 260.75 315.38 260.67 315.46 260.58 C 315.61 260.37 315.81 260.15 316.06 259.92 C 319.04 257.08 328.70 252.38 339.87 253.13 C 342.05 253.28 344.30 253.63 346.56 254.25 C 347.29 254.45 347.99 254.64 348.66 254.82 C 348.96 254.90 349.25 254.98 349.53 255.05 C 349.53 255.05 349.53 255.05 349.54 255.05 C 350.92 255.42 352.16 255.73 353.25 256.01 C 353.26 256.01 353.27 256.01 353.28 256.01 C 354.15 256.23 354.94 256.42 355.65 256.58 C 359.75 257.54 361.34 257.72 361.96 257.73 C 362.30 257.73 362.34 257.68 362.34 257.68 C 362.34 257.68 365.40 259.12 369.20 260.77 C 371.12 261.60 373.22 262.48 375.22 263.26 C 376.82 263.88 378.35 264.43 379.66 264.84 C 379.70 264.85 379.74 264.86 379.77 264.87 C 380.10 264.97 380.41 265.06 380.71 265.14 C 384.77 266.23 391.45 269.65 397.07 271.57 C 399.59 272.43 401.90 272.98 403.67 272.89 C 406.75 272.74 416.52 270.81 425.24 269.29 C 425.26 269.29 425.27 269.29 425.29 269.28 C 428.96 268.65 432.45 268.08 435.17 267.77 C 435.21 267.77 435.24 267.76 435.28 267.76 C 436.45 267.62 437.47 267.53 438.30 267.49 C 438.34 267.49 438.38 267.49 438.42 267.49 C 438.70 267.48 438.95 267.48 439.18 267.49 C 439.87 267.50 440.34 267.58 440.55 267.73 C 440.65 267.81 440.72 267.98 440.74 268.23 C 440.80 268.27 440.80 268.36 440.80 268.47 Z" fill="#f7f4e3" fill-rule="nonzero" group-id="2,6" node-id="73" stroke="none" target-height="145.16998" target-width="330.13" target-x="110.67" target-y="252.38"></path></g><g node-id="154"><g node-id="155"><path d="M 257.93 315.93 C 257.93 315.93 239.52 327.83 228.00 326.83 C 229.25 332.22 239.02 340.36 245.66 341.98 C 252.30 343.60 285.24 345.24 295.38 339.73 C 305.52 334.22 310.41 327.71 310.41 327.71 C 310.41 327.71 274.46 338.85 257.93 315.93 Z" fill="#c46573" fill-rule="nonzero" group-id="2,7,8" node-id="80" stroke="none" target-height="29.309998" target-width="82.41" target-x="228" target-y="315.93"></path></g><g node-id="156"><path d="M 340.85 207.21 C 340.85 207.21 314.31 208.99 318.59 226.99 C 322.87 244.99 348.76 229.45 348.33 225.60 C 347.90 221.74 343.86 220.55 344.43 220.33 C 345.01 220.11 351.88 217.09 349.52 214.80 C 347.16 212.51 341.46 213.90 341.46 213.90 C 341.46 213.90 344.23 209.23 340.85 207.21 Z" fill="#f7f4e3" fill-rule="nonzero" group-id="2,7,9" node-id="85" stroke="none" target-height="37.78" target-width="37.570007" target-x="314.31" target-y="207.21"></path></g><g node-id="157"><path d="M 197.66 214.56 C 197.66 214.56 218.23 219.76 216.51 233.83 C 214.78 247.90 180.67 241.17 181.58 233.43 C 182.32 230.93 185.64 232.21 185.64 232.21 C 185.64 232.21 181.23 224.68 183.81 223.89 C 186.39 223.09 191.42 223.67 191.42 223.67 C 191.42 223.67 187.58 215.56 197.66 214.56 Z" fill="#f7f4e3" fill-rule="nonzero" group-id="2,7,10" node-id="90" stroke="none" target-height="33.339996" target-width="37.559998" target-x="180.67" target-y="214.56"></path></g><path d="M 282.30 331.60 C 277.36 331.49 264.22 322.56 264.22 322.56 L 259.87 325.80 C 259.87 325.80 251.87 331.92 246.22 339.51 C 244.87 341.32 243.66 343.22 242.72 345.13 C 238.93 352.88 239.62 360.97 254.05 365.25 C 268.85 368.26 278.58 356.90 282.73 347.09 C 283.79 344.60 284.48 342.20 284.80 340.18 C 285.13 338.09 285.07 336.39 284.62 335.35 C 284.62 335.35 287.24 331.70 282.30 331.60 Z" fill="#f38b82" fill-rule="nonzero" group-id="2,7" node-id="93" stroke="none" target-height="45.700012" target-width="48.309998" target-x="238.93" target-y="322.56"></path><path d="M 194.02 277.39 L 194.07 280.31 L 193.60 283.05 L 192.64 285.65 L 191.24 288.06 L 189.46 290.17 L 187.28 292.02 L 184.83 293.48 L 182.11 294.52 L 179.09 295.14 L 176.00 295.21 L 173.12 294.80 L 170.40 293.92 L 167.87 292.60 L 165.66 290.93 L 163.76 288.90 L 162.24 286.58 L 161.18 284.01 L 160.58 281.15 L 160.53 278.23 L 161.00 275.49 L 161.96 272.88 L 163.36 270.48 L 165.14 268.36 L 167.32 266.51 L 169.77 265.05 L 172.49 264.01 L 175.51 263.40 L 178.60 263.32 L 181.48 263.73 L 184.20 264.61 L 186.73 265.93 L 188.94 267.60 L 190.84 269.63 L 192.36 271.96 L 193.42 274.53 L 194.02 277.39 Z" fill="#f58d84" fill-rule="nonzero" group-id="2,7,11,19" node-id="99" stroke="none" target-height="31.88559" target-width="33.53218" target-x="160.5337" target-y="263.32422"></path><path d="M 385.39 274.31 L 385.38 277.20 L 384.79 279.94 L 383.60 282.58 L 381.92 284.98 L 379.80 287.12 L 377.17 289.04 L 374.28 290.54 L 371.07 291.63 L 367.48 292.31 L 363.83 292.45 L 360.45 292.09 L 357.30 291.27 L 354.32 289.99 L 351.77 288.37 L 349.60 286.40 L 347.85 284.09 L 346.67 281.55 L 346.02 278.74 L 346.03 275.85 L 346.62 273.11 L 347.81 270.47 L 349.48 268.07 L 351.61 265.92 L 354.23 264.01 L 357.13 262.51 L 360.34 261.41 L 363.93 260.73 L 367.58 260.60 L 370.95 260.95 L 374.11 261.77 L 377.09 263.05 L 379.64 264.68 L 381.80 266.64 L 383.55 268.95 L 384.74 271.49 L 385.39 274.31 Z" fill="#f58d84" fill-rule="nonzero" group-id="2,7,12,20" node-id="107" stroke="none" target-height="31.849976" target-width="39.37039" target-x="346.0185" target-y="260.59753"></path><path d="M 442.50 265.41 C 441.86 264.32 440.60 263.67 439.27 263.87 C 439.15 263.89 438.77 263.94 438.19 264.03 C 434.18 262.74 427.52 260.40 423.17 257.83 C 420.59 256.30 420.05 255.40 419.98 255.26 C 419.97 255.22 419.96 255.18 419.95 255.14 L 419.94 255.08 C 419.93 255.05 419.93 255.01 419.92 254.98 C 419.86 254.70 419.80 254.42 419.74 254.13 C 419.28 251.85 418.83 249.25 418.36 246.50 C 417.70 242.71 416.96 238.41 416.02 233.97 C 414.71 227.82 413.25 222.49 411.55 217.71 C 409.78 212.70 407.68 208.09 405.30 204.00 C 405.28 203.96 405.26 203.92 405.23 203.88 C 405.14 203.73 405.06 203.59 404.97 203.45 C 408.36 195.00 407.50 182.89 406.05 173.74 C 404.05 161.10 399.82 146.99 394.45 135.02 C 383.95 111.61 373.00 107.27 371.79 106.85 C 370.62 106.45 369.32 106.75 368.46 107.64 C 353.11 123.37 343.04 146.71 340.06 154.21 C 337.73 153.17 335.32 152.23 332.83 151.40 C 321.95 147.78 312.62 147.21 308.64 146.97 C 308.44 146.96 308.22 146.94 308.02 146.93 C 307.36 146.06 306.24 144.32 305.30 142.68 C 304.71 141.64 303.58 141.01 302.40 141.06 C 301.21 141.11 300.15 141.80 299.64 142.88 C 299.43 143.30 298.51 144.76 297.46 145.01 C 297.12 144.56 296.65 143.60 296.32 142.92 C 295.19 140.59 293.63 137.41 290.21 136.27 C 288.14 135.58 286.63 136.08 285.73 136.63 C 284.96 137.10 284.40 137.72 283.99 138.42 C 283.00 137.23 281.57 136.21 279.43 135.84 C 274.49 134.99 270.93 138.88 269.19 141.38 C 250.53 140.05 231.98 145.25 219.52 149.94 C 208.53 154.08 200.42 158.45 197.30 160.22 C 163.48 147.14 138.90 147.80 124.16 150.70 C 107.63 153.95 99.43 160.59 99.09 160.88 C 98.08 161.71 97.68 163.08 98.08 164.33 C 104.35 183.94 115.71 197.23 124.14 204.92 C 131.45 211.59 137.80 215.30 140.24 216.60 C 140.03 217.97 139.69 219.29 139.24 220.44 C 138.83 221.45 137.77 223.88 136.31 227.00 C 136.30 227.01 136.30 227.03 136.29 227.04 L 135.97 227.74 C 135.44 228.87 134.85 230.10 134.23 231.39 C 134.17 231.51 134.11 231.64 134.05 231.76 C 132.05 235.89 128.95 242.12 125.47 248.40 C 125.46 248.42 125.45 248.44 125.44 248.46 C 121.83 254.99 118.59 260.16 115.83 263.83 C 114.15 266.06 112.69 267.67 111.48 268.63 C 111.34 268.74 111.21 268.84 111.07 268.94 C 110.24 269.52 109.51 270.11 108.89 270.70 C 107.10 272.41 106.16 274.21 106.02 276.20 C 105.97 276.93 106.03 277.67 106.21 278.41 C 106.22 278.46 106.24 278.51 106.25 278.56 C 106.63 280.07 107.41 281.45 108.21 282.72 C 108.33 282.91 108.45 283.10 108.57 283.29 C 108.73 283.55 108.90 283.81 109.07 284.08 C 109.20 284.29 109.34 284.50 109.47 284.71 C 109.50 284.77 109.54 284.83 109.57 284.88 C 109.59 284.91 109.61 284.94 109.63 284.98 C 110.15 285.82 110.80 286.93 111.32 288.20 C 111.33 288.22 111.33 288.24 111.34 288.25 C 111.41 288.42 111.47 288.59 111.53 288.76 C 111.54 288.79 111.55 288.83 111.56 288.86 C 111.96 289.99 112.19 291.11 112.26 292.28 C 112.26 292.32 112.27 292.35 112.27 292.39 L 112.28 292.45 C 112.28 292.50 112.28 292.55 112.29 292.59 C 112.30 292.78 112.31 293.00 112.30 293.26 C 112.27 296.28 113.55 301.54 115.73 307.33 C 116.38 309.06 117.09 310.81 117.85 312.51 C 119.17 315.51 120.69 318.56 122.36 321.59 C 124.39 325.26 126.66 328.92 129.10 332.45 C 131.37 335.75 133.86 339.01 136.48 342.17 C 136.53 342.23 136.57 342.28 136.62 342.33 C 140.54 347.03 144.86 351.55 149.46 355.77 C 173.48 377.82 204.79 391.87 242.53 397.54 C 242.61 397.55 242.68 397.57 242.76 397.57 C 249.80 398.62 257.12 399.38 264.49 399.83 C 268.68 400.09 272.85 400.22 276.97 400.22 C 287.50 400.22 297.78 399.38 307.65 397.71 C 307.75 397.70 307.85 397.68 307.95 397.66 C 314.51 396.55 321.01 395.04 327.29 393.19 C 337.63 390.14 347.69 386.04 357.14 381.04 C 357.38 380.91 357.62 380.79 357.87 380.66 C 358.04 380.57 358.22 380.48 358.39 380.39 C 358.40 380.38 358.42 380.38 358.43 380.37 C 368.26 375.05 377.66 368.63 386.37 361.29 C 386.83 360.90 387.29 360.51 387.73 360.12 C 388.65 359.33 389.50 358.58 390.30 357.87 C 390.78 357.45 391.25 357.02 391.71 356.60 C 392.15 356.19 392.60 355.78 393.03 355.38 C 393.66 354.79 394.29 354.19 394.91 353.60 C 401.29 347.46 407.32 340.73 412.83 333.60 C 413.68 332.51 414.41 331.53 415.08 330.63 C 418.30 326.29 421.37 321.76 424.22 317.14 C 433.24 302.51 438.21 290.07 440.79 282.22 C 440.81 282.17 440.82 282.11 440.84 282.06 C 442.43 277.20 443.59 272.59 444.19 268.71 C 444.42 267.36 443.71 266.03 442.50 265.41 Z M 113.31 275.37 C 113.69 275.01 114.17 274.62 114.74 274.22 C 114.99 274.04 115.24 273.86 115.47 273.67 C 117.11 272.36 118.90 270.42 120.93 267.72 C 123.88 263.80 127.29 258.36 131.06 251.55 L 131.06 251.55 C 131.07 251.53 131.08 251.51 131.09 251.49 C 134.63 245.09 137.79 238.74 139.82 234.55 C 139.83 234.53 139.84 234.50 139.85 234.48 C 139.87 234.43 139.89 234.38 139.92 234.34 C 139.94 234.31 139.95 234.28 139.97 234.24 C 140.61 232.91 141.21 231.65 141.76 230.48 C 141.77 230.47 141.77 230.45 141.78 230.44 L 141.93 230.11 C 141.99 229.98 142.05 229.85 142.11 229.72 C 143.72 226.27 144.77 223.86 145.18 222.83 C 146.30 220.00 146.91 216.61 146.89 213.30 C 146.88 212.45 146.84 211.63 146.75 210.87 C 146.75 210.84 146.74 210.81 146.74 210.77 C 146.69 210.36 146.63 209.97 146.57 209.62 C 146.48 209.09 146.36 208.59 146.23 208.12 C 148.02 207.49 151.02 206.21 150.66 202.94 C 150.58 202.19 150.29 201.44 149.76 200.59 C 149.57 200.29 149.36 199.98 149.12 199.66 C 149.47 199.54 149.83 199.39 150.19 199.23 C 154.66 197.24 158.78 192.83 158.95 192.64 C 159.25 192.31 159.48 191.94 159.62 191.54 C 163.82 194.70 166.67 197.11 167.38 197.81 C 167.99 198.60 168.93 199.06 169.92 199.06 C 170.29 199.06 170.67 198.99 171.04 198.86 C 172.70 198.24 173.54 196.40 172.92 194.74 C 172.65 194.01 172.41 193.38 166.32 188.60 C 163.28 186.21 158.40 182.54 152.38 178.61 C 142.13 171.91 127.23 163.59 114.40 162.02 C 112.65 161.81 111.05 163.05 110.83 164.81 C 110.62 166.57 111.86 168.16 113.62 168.38 C 126.83 169.99 143.39 179.99 154.65 187.94 C 154.51 188.05 154.38 188.16 154.25 188.30 C 153.31 189.31 150.28 192.19 147.58 193.40 C 147.09 193.62 146.65 193.76 146.28 193.83 C 146.24 193.84 146.20 193.85 146.16 193.86 C 145.80 193.92 145.51 193.90 145.33 193.82 C 144.42 193.40 141.66 192.14 139.94 194.46 C 139.22 195.43 138.72 197.06 140.44 199.31 C 140.89 199.89 141.47 200.56 142.10 201.27 C 142.42 201.64 142.77 202.04 143.11 202.43 C 142.07 202.80 139.98 203.57 139.28 205.63 C 138.93 206.67 139.03 207.77 139.54 208.78 C 131.26 203.46 113.67 189.72 104.91 164.64 C 107.95 162.72 114.92 159.01 125.87 156.92 C 139.91 154.25 163.54 153.78 196.39 166.77 C 197.32 167.14 198.37 167.05 199.23 166.53 C 199.59 166.31 235.86 144.60 270.57 147.95 C 271.87 148.08 273.12 147.39 273.72 146.24 C 274.53 144.69 276.72 141.90 278.33 142.18 C 279.01 142.30 279.32 142.63 280.00 144.64 C 280.52 146.15 281.48 148.97 284.53 149.06 C 284.58 149.06 284.63 149.06 284.68 149.06 C 288.20 149.06 288.80 145.26 289.06 143.63 C 289.08 143.50 289.10 143.36 289.13 143.21 C 289.63 143.89 290.11 144.86 290.54 145.76 C 291.71 148.16 293.31 151.43 297.04 151.48 C 299.04 151.51 300.75 150.75 302.10 149.72 C 303.76 152.14 304.56 152.58 304.96 152.80 C 305.73 153.23 306.36 153.27 308.23 153.38 C 331.34 154.78 349.15 163.18 361.16 178.36 C 362.26 179.75 364.27 179.98 365.66 178.88 C 367.05 177.78 367.28 175.77 366.18 174.38 C 360.58 167.30 353.74 161.52 345.79 157.10 C 348.25 150.90 357.55 128.97 371.38 113.87 C 372.40 114.54 373.82 115.62 375.51 117.30 C 378.77 120.54 383.68 126.70 388.60 137.66 C 397.14 156.69 402.89 182.36 400.28 196.64 C 395.79 190.98 390.40 186.37 384.24 182.92 C 384.35 181.50 384.41 179.59 384.21 177.63 C 383.62 171.84 381.09 169.33 379.09 168.25 C 378.47 167.91 377.82 167.66 377.12 167.49 C 377.88 162.32 379.17 152.29 379.53 141.66 C 379.75 135.04 379.57 129.17 378.98 124.21 C 378.77 122.45 377.18 121.20 375.42 121.41 C 373.66 121.62 372.41 123.21 372.62 124.97 C 373.17 129.61 373.34 135.16 373.13 141.46 C 372.65 156.03 370.27 169.88 370.25 170.02 C 370.07 171.04 370.40 172.09 371.13 172.82 C 371.86 173.56 372.90 173.89 373.93 173.72 C 374.84 173.57 375.54 173.62 376.04 173.89 C 377.89 174.89 378.28 179.82 377.70 183.91 L 377.65 184.22 C 377.43 185.60 378.13 186.96 379.38 187.59 C 379.79 187.79 380.20 188.01 380.66 188.26 C 380.70 188.28 380.74 188.30 380.78 188.32 C 387.07 191.77 392.45 196.58 396.79 202.63 C 397.10 203.06 397.40 203.50 397.71 203.96 C 397.40 205.28 397.96 206.71 399.19 207.45 C 399.48 207.62 399.78 207.74 400.09 207.81 C 402.14 211.42 403.97 215.47 405.52 219.87 C 407.13 224.40 408.51 229.45 409.76 235.33 C 410.68 239.65 411.41 243.89 412.05 247.62 C 412.53 250.41 412.99 253.05 413.47 255.42 C 413.53 255.74 413.60 256.05 413.67 256.36 C 413.68 256.42 413.69 256.48 413.71 256.54 L 413.72 256.60 C 413.72 256.62 413.73 256.64 413.73 256.67 C 414.24 259.05 416.20 261.18 419.91 263.37 C 421.50 264.31 423.33 265.21 425.23 266.05 C 416.71 267.37 407.10 268.91 404.96 269.42 C 404.22 269.57 400.60 269.30 394.15 267.47 C 389.00 266.01 384.29 264.15 382.70 262.93 C 380.12 260.96 376.53 260.19 373.07 259.44 C 370.37 258.86 367.01 258.14 366.09 257.00 C 365.32 256.06 364.46 255.37 363.53 254.86 C 364.50 254.26 365.34 253.79 365.96 253.48 C 367.54 252.68 368.17 250.75 367.37 249.17 C 366.57 247.59 364.64 246.96 363.06 247.76 C 362.31 248.14 358.69 250.04 354.97 252.98 C 354.91 252.97 354.85 252.96 354.79 252.95 C 354.89 252.43 354.86 251.88 354.69 251.34 C 354.13 249.66 352.32 248.75 350.64 249.31 C 350.02 249.52 349.19 249.97 348.12 250.88 C 346.48 250.19 344.43 249.70 342.15 249.43 C 339.50 242.97 332.80 238.77 325.53 239.58 C 321.27 240.06 317.46 242.17 314.79 245.52 C 312.12 248.87 310.91 253.06 311.39 257.31 C 311.50 258.32 311.71 259.31 312.01 260.26 C 305.55 268.81 292.70 270.66 292.57 270.68 C 292.10 270.74 291.67 270.91 291.29 271.15 C 290.04 270.54 288.81 269.97 287.58 269.46 C 282.57 265.09 274.13 262.81 264.71 263.87 C 263.46 264.01 262.24 264.21 261.05 264.45 C 254.17 264.74 248.17 266.21 243.33 267.97 C 239.39 269.40 235.95 271.10 233.07 272.77 C 232.83 272.72 232.58 272.69 232.32 272.70 C 232.31 272.70 232.29 272.70 232.28 272.70 C 230.84 272.70 226.28 271.07 221.01 269.00 C 222.17 266.45 222.68 263.57 222.35 260.59 C 221.87 256.33 219.76 252.52 216.41 249.85 C 213.06 247.18 208.88 245.97 204.62 246.45 C 200.36 246.93 196.55 249.04 193.88 252.38 C 192.67 253.90 191.76 255.59 191.17 257.38 C 167.15 251.04 160.87 260.11 157.42 265.10 C 157.06 265.62 156.60 266.29 156.29 266.64 C 144.03 268.33 140.69 273.45 138.24 277.21 C 137.02 279.09 136.32 280.09 134.98 280.64 C 132.92 281.49 127.85 281.57 115.38 277.13 C 114.44 276.80 114.05 276.66 113.72 276.57 C 113.30 276.46 112.87 276.45 112.47 276.51 C 112.55 276.22 112.85 275.82 113.31 275.37 Z M 343.34 256.09 C 343.37 256.10 343.39 256.10 343.41 256.11 C 343.38 256.15 343.36 256.18 343.33 256.22 C 343.34 256.17 343.34 256.13 343.34 256.09 Z M 434.68 280.36 C 432.19 287.89 427.42 299.78 418.77 313.82 C 416.02 318.28 413.05 322.66 409.93 326.86 C 409.29 327.73 408.58 328.66 407.77 329.72 C 402.45 336.60 396.64 343.10 390.48 349.02 C 389.88 349.59 389.28 350.16 388.66 350.75 C 388.25 351.14 387.83 351.53 387.40 351.91 C 386.96 352.32 386.51 352.72 386.05 353.13 C 385.27 353.83 384.46 354.54 383.56 355.32 C 383.13 355.69 382.70 356.06 382.26 356.43 C 373.89 363.48 364.86 369.65 355.42 374.76 C 355.24 374.85 355.06 374.95 354.87 375.05 C 354.65 375.17 354.44 375.28 354.19 375.41 C 345.09 380.23 335.43 384.16 325.50 387.10 C 319.44 388.89 313.15 390.34 306.82 391.41 C 306.79 391.41 306.76 391.42 306.73 391.42 C 293.43 393.68 279.36 394.37 264.90 393.48 C 257.68 393.04 250.52 392.29 243.63 391.26 C 243.62 391.26 243.61 391.26 243.60 391.26 C 243.59 391.26 243.58 391.26 243.57 391.26 C 207.08 385.79 176.88 372.27 153.80 351.09 C 149.39 347.04 145.25 342.71 141.49 338.20 C 141.47 338.18 141.45 338.15 141.43 338.13 C 138.92 335.12 136.55 332.00 134.38 328.86 C 132.06 325.50 129.90 322.03 127.97 318.54 C 126.39 315.68 124.96 312.80 123.71 309.97 C 123.00 308.38 122.34 306.75 121.73 305.13 C 119.31 298.72 118.69 294.73 118.71 293.40 C 118.72 293.01 118.71 292.66 118.69 292.32 C 118.69 292.15 118.67 292.01 118.66 291.90 C 118.55 290.20 118.21 288.52 117.64 286.89 C 117.61 286.79 117.58 286.69 117.54 286.60 C 117.45 286.36 117.36 286.11 117.27 285.88 L 117.27 285.88 C 117.26 285.86 117.25 285.83 117.24 285.81 C 117.03 285.29 116.81 284.81 116.58 284.35 C 121.72 286.05 127.29 287.51 131.95 287.51 C 133.97 287.51 135.82 287.24 137.39 286.59 C 140.64 285.25 142.20 282.85 143.58 280.73 C 145.69 277.48 147.88 274.13 157.83 272.92 C 158.13 272.88 158.42 272.81 158.69 272.69 C 160.46 271.94 161.53 270.40 162.66 268.77 C 165.61 264.51 170.00 258.16 190.42 263.84 C 190.43 263.96 190.44 264.08 190.45 264.20 C 190.77 267.05 191.83 269.64 193.40 271.81 C 193.10 271.61 192.79 271.41 192.48 271.21 C 186.62 267.50 181.57 265.57 177.46 265.47 C 177.44 265.47 177.41 265.47 177.39 265.47 C 175.66 265.47 174.23 266.86 174.19 268.60 C 174.15 270.37 175.55 271.83 177.32 271.88 C 183.33 272.02 192.63 278.83 195.71 281.45 C 196.31 281.96 197.05 282.21 197.79 282.21 C 198.70 282.21 199.60 281.83 200.23 281.08 C 201.16 279.99 201.23 278.46 200.51 277.30 C 202.34 278.03 204.33 278.43 206.39 278.43 C 206.99 278.43 207.59 278.40 208.19 278.33 C 211.62 277.94 214.67 276.50 217.07 274.35 C 220.55 275.74 223.46 276.85 225.85 277.64 C 224.00 279.09 222.97 280.09 222.86 280.20 C 221.60 281.44 221.58 283.46 222.82 284.72 C 223.45 285.36 224.28 285.68 225.11 285.68 C 225.92 285.68 226.73 285.38 227.35 284.77 C 227.41 284.71 233.41 278.93 243.34 274.84 C 241.48 277.57 240.59 280.60 240.94 283.72 C 241.89 292.21 251.65 298.04 263.98 298.04 C 265.46 298.04 266.97 297.96 268.51 297.78 C 282.47 296.21 292.71 287.96 292.33 278.79 C 293.68 279.09 295.12 278.48 295.82 277.21 C 295.94 276.99 296.03 276.76 296.10 276.52 C 300.48 275.52 309.21 272.80 315.36 266.21 C 315.95 266.87 316.60 267.49 317.31 268.06 C 320.18 270.35 323.66 271.56 327.28 271.56 C 327.89 271.56 328.49 271.53 329.10 271.46 C 333.36 270.98 337.17 268.87 339.84 265.52 C 340.17 265.11 340.48 264.68 340.76 264.24 C 340.93 264.42 341.12 264.59 341.33 264.73 C 341.88 265.09 342.49 265.27 343.10 265.27 C 344.13 265.27 345.15 264.77 345.77 263.84 C 346.25 263.12 346.76 262.39 347.26 261.69 C 346.75 262.70 346.35 263.75 346.11 264.84 C 345.72 266.57 346.81 268.28 348.53 268.67 C 348.77 268.72 349.00 268.75 349.23 268.75 C 350.70 268.75 352.02 267.74 352.35 266.25 C 352.85 264.02 354.72 261.73 356.97 259.69 C 359.12 259.95 360.42 260.22 361.09 261.04 C 363.43 263.93 367.63 264.83 371.70 265.70 C 374.48 266.30 377.35 266.91 378.79 268.01 C 382.23 270.63 390.17 272.99 392.52 273.66 C 396.33 274.73 403.20 276.41 406.43 275.63 C 409.17 274.97 427.58 272.13 437.32 270.65 C 436.71 273.56 435.82 276.81 434.71 280.20 C 434.71 280.25 434.69 280.31 434.68 280.36 Z" fill="#683e35" fill-rule="nonzero" group-id="2,7,13" node-id="113" stroke="none" target-height="293.77002" target-width="346.74002" target-x="97.68" target-y="106.45"></path><path d="M 327.71 290.74 C 324.70 288.47 321.79 286.93 321.67 286.86 C 320.11 286.03 318.17 286.63 317.34 288.20 C 316.51 289.76 317.11 291.70 318.68 292.53 C 320.51 293.50 322.45 294.76 324.14 296.07 C 322.98 296.79 322.38 298.21 322.75 299.59 C 323.01 300.85 322.06 309.50 315.98 317.35 C 310.73 324.14 303.54 327.82 294.61 328.30 C 284.51 328.84 275.68 326.59 268.36 321.60 C 262.87 317.86 260.31 313.88 260.29 313.85 C 259.82 313.09 259.05 312.56 258.17 312.40 C 257.29 312.23 256.38 312.44 255.66 312.97 C 243.23 322.16 232.90 325.46 225.79 322.52 C 216.84 318.82 214.82 306.27 214.79 306.07 C 214.72 305.58 214.53 305.13 214.27 304.74 C 214.36 304.73 214.43 304.73 214.48 304.74 C 215.64 305.85 217.46 305.94 218.73 304.89 C 220.09 303.76 220.29 301.75 219.16 300.38 C 218.31 299.35 216.55 298.26 214.19 298.33 C 210.25 298.44 206.08 301.58 201.43 307.93 C 200.39 309.36 200.70 311.36 202.12 312.41 C 202.69 312.83 203.35 313.03 204.01 313.03 C 205.00 313.03 205.97 312.58 206.60 311.72 C 207.40 310.63 208.14 309.70 208.83 308.92 C 209.87 313.37 213.38 324.29 223.30 328.42 C 223.53 328.51 223.76 328.60 223.99 328.69 C 224.08 329.00 224.21 329.30 224.40 329.59 C 224.71 330.06 230.88 339.31 239.79 343.85 C 237.84 347.88 237.17 351.61 237.79 355.00 C 238.92 361.14 244.09 365.62 253.14 368.31 C 253.23 368.34 253.32 368.36 253.41 368.38 C 255.22 368.75 257.02 368.93 258.78 368.93 C 266.79 368.93 274.16 365.16 279.93 357.99 C 282.73 354.51 284.99 350.34 286.44 346.36 C 299.66 343.41 309.46 337.07 315.63 327.42 C 315.81 327.14 315.94 326.84 316.02 326.54 C 318.38 324.52 320.26 322.36 321.73 320.34 C 325.25 315.49 327.09 310.60 328.01 307.35 C 328.50 305.62 328.84 303.96 329.02 302.49 C 329.57 303.51 330.64 304.19 331.84 304.19 C 331.96 304.19 332.08 304.18 332.20 304.17 C 333.96 303.97 335.22 302.39 335.02 300.63 C 334.67 297.42 332.27 294.18 327.71 290.74 Z M 234.78 332.13 C 234.04 331.38 233.37 330.64 232.77 329.96 C 239.79 329.57 247.86 326.24 256.90 319.97 C 257.57 320.75 258.41 321.66 259.42 322.63 C 258.89 322.70 258.37 322.91 257.92 323.26 C 257.69 323.43 252.32 327.56 247.16 333.33 C 245.62 335.05 244.27 336.73 243.10 338.36 C 239.90 336.82 237.03 334.41 234.78 332.13 Z M 274.72 354.25 C 270.89 358.89 264.34 364.02 254.82 362.14 C 248.35 360.19 244.74 357.41 244.08 353.85 C 243.34 349.86 246.11 344.11 251.86 337.66 C 256.62 332.33 261.75 328.38 261.80 328.34 C 262.64 327.69 263.07 326.71 263.05 325.73 C 264.07 326.50 265.18 327.27 266.40 328.02 C 263.04 330.72 253.49 339.27 253.71 348.95 C 253.75 350.69 255.18 352.08 256.91 352.08 C 256.94 352.08 256.96 352.08 256.99 352.08 C 258.76 352.04 260.16 350.57 260.12 348.80 C 259.96 342.06 268.13 334.63 271.29 332.34 C 271.76 332.00 272.10 331.56 272.33 331.07 C 275.11 332.24 278.25 333.23 281.77 333.90 C 281.35 334.73 281.28 335.73 281.69 336.65 C 282.43 338.45 280.53 347.21 274.72 354.25 Z M 288.12 339.34 C 288.29 337.54 288.19 335.93 287.77 334.65 C 289.04 334.74 290.34 334.79 291.69 334.79 C 292.75 334.79 293.83 334.76 294.94 334.70 C 296.73 334.60 298.42 334.40 300.03 334.10 C 296.36 336.46 292.31 338.15 288.12 339.34 Z" fill="#683e35" fill-rule="nonzero" group-id="2,7,13" node-id="115" stroke="none" target-height="82.899994" target-width="134.83" target-x="200.39" target-y="286.03"></path><path d="M 298.52 356.51 C 296.85 355.93 295.02 356.82 294.45 358.49 C 292.09 365.32 287.02 369.70 279.38 371.49 C 273.34 372.91 267.90 372.14 267.82 372.13 C 266.07 371.87 264.45 373.07 264.18 374.82 C 263.92 376.57 265.12 378.20 266.87 378.46 C 267.01 378.48 268.85 378.75 271.62 378.75 C 274.07 378.75 277.24 378.54 280.62 377.77 C 290.52 375.51 297.39 369.56 300.49 360.57 C 301.08 358.91 300.20 357.09 298.52 356.51 Z" fill="#683e35" fill-rule="nonzero" group-id="2,7,13" node-id="117" stroke="none" target-height="22.820007" target-width="37.159973" target-x="263.92" target-y="355.93"></path><path d="M 199.27 287.72 C 199.18 287.67 190.70 282.73 183.40 282.73 C 183.32 282.73 183.24 282.73 183.17 282.73 C 181.40 282.76 179.99 284.21 180.01 285.98 C 180.04 287.75 181.48 289.16 183.26 289.13 C 187.86 289.05 194.17 292.15 196.02 293.24 C 196.53 293.54 197.09 293.68 197.64 293.68 C 198.74 293.68 199.81 293.11 200.40 292.10 C 201.30 290.58 200.79 288.62 199.27 287.72 Z" fill="#683e35" fill-rule="nonzero" group-id="2,7,13" node-id="119" stroke="none" target-height="10.949982" target-width="21.309998" target-x="179.99" target-y="282.73"></path><path d="M 216.81 258.57 C 216.81 260.28 215.42 261.67 213.71 261.67 C 212.00 261.67 210.61 260.28 210.61 258.57 C 210.61 256.86 212.00 255.47 213.71 255.47 C 215.42 255.47 216.81 256.86 216.81 258.57 Z" fill="#f7f4e3" fill-rule="nonzero" group-id="2,7,14" node-id="124" stroke="none" target-height="6.200012" target-width="6.199997" target-x="210.61" target-y="255.47"></path><path d="M 201.44 269.44 C 201.44 270.20 200.83 270.81 200.07 270.81 C 199.31 270.81 198.70 270.20 198.70 269.44 C 198.70 268.68 199.31 268.07 200.07 268.07 C 200.83 268.07 201.44 268.68 201.44 269.44 Z" fill="#f7f4e3" fill-rule="nonzero" group-id="2,7,15" node-id="129" stroke="none" target-height="2.7399902" target-width="2.7400055" target-x="198.7" target-y="268.07"></path><path d="M 337.02 249.55 C 337.02 251.26 335.63 252.65 333.92 252.65 C 332.21 252.65 330.82 251.26 330.82 249.55 C 330.82 247.84 332.21 246.45 333.92 246.45 C 335.63 246.45 337.02 247.84 337.02 249.55 Z" fill="#f7f4e3" fill-rule="nonzero" group-id="2,7,16" node-id="134" stroke="none" target-height="6.199997" target-width="6.1999817" target-x="330.82" target-y="246.45"></path><path d="M 323.66 262.63 C 323.66 263.39 323.05 264.00 322.29 264.00 C 321.53 264.00 320.92 263.39 320.92 262.63 C 320.92 261.87 321.53 261.26 322.29 261.26 C 323.05 261.26 323.66 261.87 323.66 262.63 Z" fill="#f7f4e3" fill-rule="nonzero" group-id="2,7,17" node-id="139" stroke="none" target-height="2.7399902" target-width="2.7399902" target-x="320.92" target-y="261.26"></path><path d="M 277.46 280.29 C 269.38 278.62 258.58 283.42 258.58 283.42 C 258.58 283.42 263.08 285.03 269.17 283.84 C 275.27 282.66 277.46 280.29 277.46 280.29 Z" fill="#f7f4e3" fill-rule="nonzero" group-id="2,7,18" node-id="144" stroke="none" target-height="6.4100037" target-width="18.880005" target-x="258.58" target-y="278.62"></path><path d="M 264.69 287.48 C 260.49 287.48 257.67 286.49 257.51 286.44 C 256.28 286.00 255.44 284.85 255.39 283.54 C 255.34 282.23 256.09 281.03 257.29 280.49 C 257.77 280.28 269.13 275.29 278.12 277.15 C 279.25 277.38 280.17 278.21 280.52 279.31 C 280.87 280.41 280.61 281.61 279.82 282.46 C 279.34 282.98 276.58 285.67 269.80 286.98 C 267.95 287.35 266.23 287.48 264.69 287.48 Z" fill="#f7f4e3" fill-rule="nonzero" group-id="2,7,18" node-id="146" stroke="none" target-height="12.190002" target-width="25.529999" target-x="255.34" target-y="275.29"></path></g></g></svg>